<svg width="40" height="40" viewBox="0 0 40 40" fill="none" xmlns="http://www.w3.org/2000/svg">
<circle cx="20" cy="20" r="20" fill="white"/>
<path d="M20.0016 12.067C22.5855 12.067 22.8915 12.0767 23.9122 12.1232C24.526 12.1308 25.1338 12.2434 25.7095 12.4564C26.1269 12.6174 26.506 12.864 26.8224 13.1804C27.1387 13.4967 27.3854 13.8758 27.5463 14.2933C27.7593 14.8689 27.872 15.4768 27.8795 16.0905C27.9256 17.1113 27.9357 17.4172 27.9357 20.0011C27.9357 22.585 27.9261 22.891 27.8795 23.9117C27.872 24.5254 27.7593 25.1333 27.5463 25.709C27.3854 26.1264 27.1387 26.5055 26.8224 26.8219C26.506 27.1382 26.1269 27.3848 25.7095 27.5458C25.1338 27.7588 24.526 27.8715 23.9122 27.879C22.892 27.9251 22.586 27.9352 20.0016 27.9352C17.4173 27.9352 17.1113 27.9255 16.091 27.879C15.4773 27.8715 14.8694 27.7588 14.2938 27.5458C13.8764 27.3848 13.4973 27.1382 13.1809 26.8219C12.8645 26.5055 12.6179 26.1264 12.4569 25.709C12.244 25.1333 12.1313 24.5254 12.1238 23.9117C12.0777 22.891 12.0675 22.585 12.0675 20.0011C12.0675 17.4172 12.0772 17.1113 12.1238 16.0905C12.1313 15.4768 12.244 14.8689 12.4569 14.2933C12.6179 13.8758 12.8645 13.4967 13.1809 13.1804C13.4973 12.864 13.8764 12.6174 14.2938 12.4564C14.8694 12.2434 15.4773 12.1308 16.091 12.1232C17.1118 12.0772 17.4178 12.067 20.0016 12.067V12.067ZM20.0016 10.3232C17.3749 10.3232 17.044 10.3343 16.0118 10.3813C15.2086 10.3973 14.4139 10.5494 13.6615 10.8311C13.0162 11.0742 12.4316 11.4553 11.9486 11.9477C11.4558 12.4308 11.0744 13.0157 10.8311 13.6615C10.5494 14.4138 10.3973 15.2085 10.3814 16.0117C10.3353 17.0431 10.3242 17.3739 10.3242 20.0007C10.3242 22.6274 10.3353 22.9583 10.3823 23.9905C10.3983 24.7937 10.5503 25.5884 10.8321 26.3408C11.0751 26.9865 11.4562 27.5714 11.9486 28.0546C12.4319 28.5471 13.0167 28.9281 13.6625 29.1712C14.4148 29.4529 15.2095 29.605 16.0127 29.6209C17.045 29.667 17.3744 29.679 20.0026 29.679C22.6307 29.679 22.9602 29.6679 23.9924 29.6209C24.7956 29.605 25.5903 29.4529 26.3427 29.1712C26.9853 28.9221 27.5689 28.5416 28.0561 28.054C28.5433 27.5665 28.9235 26.9827 29.1721 26.3398C29.4539 25.5875 29.6059 24.7928 29.6219 23.9896C29.668 22.9583 29.6791 22.6274 29.6791 20.0007C29.6791 17.3739 29.668 17.0431 29.621 16.0108C29.605 15.2076 29.4529 14.4129 29.1712 13.6606C28.9282 13.0148 28.5471 12.43 28.0546 11.9467C27.5714 11.4543 26.9865 11.0732 26.3408 10.8302C25.5885 10.5484 24.7938 10.3964 23.9906 10.3804C22.9592 10.3343 22.6284 10.3232 20.0016 10.3232Z" fill="#13348F"/>
<path d="M20.0028 15.0347C19.0199 15.0347 18.0591 15.3261 17.2418 15.8722C16.4246 16.4183 15.7876 17.1944 15.4115 18.1025C15.0354 19.0105 14.9369 20.0098 15.1287 20.9738C15.3204 21.9378 15.7938 22.8233 16.4888 23.5183C17.1838 24.2133 18.0693 24.6866 19.0333 24.8784C19.9973 25.0701 20.9965 24.9717 21.9046 24.5956C22.8126 24.2194 23.5888 23.5825 24.1349 22.7652C24.6809 21.948 24.9724 20.9871 24.9724 20.0043C24.9724 18.6862 24.4488 17.4222 23.5168 16.4902C22.5848 15.5582 21.3208 15.0347 20.0028 15.0347ZM20.0028 23.2301C19.3648 23.2301 18.7411 23.0409 18.2106 22.6864C17.6801 22.332 17.2667 21.8282 17.0225 21.2387C16.7784 20.6493 16.7145 20.0007 16.839 19.3749C16.9634 18.7492 17.2707 18.1744 17.7218 17.7233C18.1729 17.2721 18.7477 16.9649 19.3735 16.8404C19.9992 16.716 20.6478 16.7798 21.2373 17.024C21.8267 17.2682 22.3305 17.6816 22.685 18.2121C23.0394 18.7426 23.2286 19.3662 23.2286 20.0043C23.2286 20.8598 22.8887 21.6803 22.2838 22.2852C21.6788 22.8902 20.8583 23.2301 20.0028 23.2301V23.2301Z" fill="#13348F"/>
<path d="M25.1691 15.9945C25.8105 15.9945 26.3304 15.4745 26.3304 14.8332C26.3304 14.1918 25.8105 13.6719 25.1691 13.6719C24.5277 13.6719 24.0078 14.1918 24.0078 14.8332C24.0078 15.4745 24.5277 15.9945 25.1691 15.9945Z" fill="#13348F"/>
</svg>
