<svg width="40" height="40" viewBox="0 0 40 40" fill="none" xmlns="http://www.w3.org/2000/svg">
<circle cx="20" cy="20" r="20" fill="white"/>
<path d="M15.253 26.494L15.977 26.917C17.198 27.6291 18.5866 28.0029 20 28C21.5823 28 23.129 27.5308 24.4446 26.6518C25.7602 25.7727 26.7855 24.5233 27.3911 23.0615C27.9966 21.5997 28.155 19.9911 27.8463 18.4393C27.5376 16.8874 26.7757 15.462 25.6569 14.3431C24.538 13.2243 23.1126 12.4624 21.5607 12.1537C20.0089 11.845 18.4004 12.0035 16.9385 12.609C15.4767 13.2145 14.2273 14.2398 13.3483 15.5554C12.4692 16.871 12 18.4177 12 20C12 21.436 12.377 22.813 13.084 24.024L13.506 24.748L12.853 27.149L15.253 26.494ZM10.004 30L11.356 25.032C10.4652 23.5049 9.99711 21.768 10 20C10 14.477 14.477 10 20 10C25.523 10 30 14.477 30 20C30 25.523 25.523 30 20 30C18.2328 30.0029 16.4967 29.5352 14.97 28.645L10.004 30ZM16.391 15.308C16.525 15.298 16.66 15.298 16.794 15.304C16.848 15.308 16.902 15.314 16.956 15.32C17.115 15.338 17.29 15.435 17.349 15.569C17.647 16.245 17.937 16.926 18.217 17.609C18.279 17.761 18.242 17.956 18.124 18.146C18.0429 18.2745 17.9551 18.3986 17.861 18.518C17.748 18.663 17.505 18.929 17.505 18.929C17.505 18.929 17.406 19.047 17.444 19.194C17.458 19.25 17.504 19.331 17.546 19.399L17.605 19.494C17.861 19.921 18.205 20.354 18.625 20.762C18.745 20.878 18.862 20.997 18.988 21.108C19.456 21.521 19.986 21.858 20.558 22.108L20.563 22.11C20.648 22.147 20.691 22.167 20.815 22.22C20.877 22.246 20.941 22.269 21.006 22.286C21.0732 22.3031 21.1439 22.2999 21.2093 22.2767C21.2746 22.2536 21.3316 22.2116 21.373 22.156C22.097 21.279 22.163 21.222 22.169 21.222V21.224C22.2193 21.1771 22.2791 21.1415 22.3443 21.1196C22.4095 21.0977 22.4786 21.09 22.547 21.097C22.607 21.101 22.668 21.112 22.724 21.137C23.255 21.38 24.124 21.759 24.124 21.759L24.706 22.02C24.804 22.067 24.893 22.178 24.896 22.285C24.9 22.352 24.906 22.46 24.883 22.658C24.851 22.917 24.773 23.228 24.695 23.391C24.6416 23.5022 24.5707 23.6042 24.485 23.693C24.3841 23.7989 24.2736 23.8954 24.155 23.981C24.114 24.0119 24.0723 24.0419 24.03 24.071C23.9056 24.1499 23.7778 24.2233 23.647 24.291C23.3895 24.4278 23.1052 24.5063 22.814 24.521C22.629 24.531 22.444 24.545 22.258 24.535C22.25 24.535 21.69 24.448 21.69 24.448C20.2683 24.074 18.9534 23.3735 17.85 22.402C17.624 22.203 17.415 21.989 17.201 21.776C16.311 20.891 15.639 19.936 15.231 19.034C15.0222 18.5913 14.9094 18.1094 14.9 17.62C14.8959 17.0129 15.0944 16.4217 15.464 15.94C15.537 15.846 15.606 15.748 15.725 15.635C15.852 15.515 15.932 15.451 16.019 15.407C16.1347 15.349 16.2609 15.315 16.39 15.307L16.391 15.308Z" fill="#13348F"/>
</svg>
